<svg aria-hidden="true" style="position: absolute; width: 0; height: 0; overflow: hidden;" version="1.1" xmlns="http://www.w3.org/2000/svg" xmlns:xlink="http://www.w3.org/1999/xlink">
<defs>
<symbol id="icon-Burger" viewBox="0 0 46 32">
<path d="M0 2.295h45.714M0 16.010h45.714M0 29.724h45.714"></path>
</symbol>
<symbol id="icon-menu" viewBox="0 0 32 32">
<path d="M6.4 11.734v-2.134h19.2v2.134h-19.2zM6.4 17.066h19.2v-2.133h-19.2v2.133zM6.4 22.4h19.2v-2.134h-19.2v2.134z"></path>
</symbol>
<symbol id="icon-close" viewBox="0 0 32 32">
<path d="M2.521 2.001l26.97 28.010M2.001 29.49l28.010-26.97"></path>
</symbol>
<symbol id="button-icon" viewBox="0 0 26 32">
<path stroke-linejoin="round" stroke-linecap="round" stroke-miterlimit="4" stroke-width="6.4" d="M3.547 3.2l16.826 12.8-16.826 12.8"></path>
</symbol>
<symbol id="icon-quotation-mark" viewBox="0 0 43 32">
<path d="M32.019-0.003c1.928 0 3.75 0.52 5.465 1.561s3.108 2.537 4.179 4.489c1.029 1.952 1.543 4.25 1.543 6.896s-0.643 5.226-1.928 7.741c-0.429 0.911-1.2 2.081-2.316 3.513-1.157 1.431-2.228 2.667-3.214 3.708l-4.051 4.098-2.893-4.814c2.063-1.302 3.824-2.855 5.307-4.647l0.030-0.037c1.543-1.821 2.314-3.491 2.314-5.009 0-0.781-0.171-1.41-0.514-1.887-1.5 1.084-3.172 1.627-5.015 1.627-1.328 0-2.593-0.412-3.793-1.236-1.238-0.782-2.238-1.834-2.936-3.079l-0.022-0.043c-0.771-1.258-1.157-2.559-1.157-3.903 0-1.519 0.45-2.971 1.35-4.359 0.866-1.389 2.011-2.526 3.364-3.357l0.044-0.025c1.371-0.824 2.784-1.236 4.242-1.236zM8.937-0.003c1.928 0 3.75 0.52 5.465 1.561s3.108 2.536 4.179 4.489c1.029 1.952 1.543 4.25 1.543 6.896 0 1.864-0.236 3.534-0.707 5.009-0.472 1.518-1.286 3.101-2.444 4.749-1.115 1.561-2.164 2.862-3.15 3.903-0.986 1.084-2.7 2.884-5.144 5.399l-2.893-4.814c2.063-1.302 3.824-2.855 5.307-4.647l0.030-0.037c1.543-1.821 2.315-3.491 2.315-5.009 0-0.781-0.172-1.41-0.514-1.887-1.5 1.084-3.172 1.627-5.015 1.627-1.328 0-2.593-0.412-3.793-1.236-1.238-0.782-2.238-1.834-2.936-3.079l-0.022-0.043c-0.771-1.258-1.157-2.559-1.157-3.903 0-1.519 0.429-2.971 1.286-4.359 0.866-1.389 2.011-2.526 3.364-3.357l0.045-0.025c1.371-0.824 2.784-1.236 4.243-1.236z"></path>
</symbol>
<symbol id="icon-github" viewBox="0 0 32 32">
<path d="M15.859 0c-8.711 0-15.859 7.148-15.859 15.859 0 7.432 5.215 14.184 12.142 15.857v-5.245c-0.686 0.15-1.318 0.153-2.017-0.051-0.937-0.278-1.698-0.901-2.263-1.853-0.361-0.608-0.999-1.267-1.666-1.22l-0.163-1.85c1.441-0.123 2.688 0.876 3.427 2.12 0.329 0.553 0.708 0.876 1.193 1.021 0.468 0.138 0.972 0.071 1.559-0.135 0.148-1.176 0.686-1.618 1.094-2.236-4.132-0.617-5.778-2.809-6.43-4.538-0.866-2.297-0.403-5.166 1.129-6.979 0.030-0.035 0.084-0.128 0.062-0.192-0.701-2.121 0.153-3.875 0.185-4.061 0.809 0.239 0.942-0.241 3.52 1.324l0.445 0.268c0.185 0.111 0.128 0.047 0.313 0.034 0.994-0.281 2.138-0.451 3.319-0.468l0.010-0c1.207 0.019 2.367 0.193 3.468 0.503l-0.095-0.023 0.145 0.013c-0.013 0 0.039-0.008 0.125-0.061 3.22-1.95 3.104-1.313 3.968-1.594 0.030 0.187 0.876 1.97 0.18 4.064-0.093 0.286 2.792 2.93 1.193 7.17-0.654 1.73-2.3 3.923-6.43 4.538 0.529 0.809 1.164 1.238 1.163 2.903v6.548c6.925-1.673 12.14-8.425 12.14-15.857 0-8.711-7.148-15.859-15.857-15.859z"></path>
</symbol>
<symbol id="icon-telegram" viewBox="0 0 40 32">
<path d="M16.206 20.756l-0.636 8.34c0.908 0 1.302-0.366 1.774-0.802l4.26-3.8 8.83 6.034c1.62 0.84 2.76 0.398 3.196-1.39l5.796-25.346h0.002c0.514-2.236-0.866-3.108-2.444-2.56l-34.064 12.172c-2.324 0.84-2.29 2.052-0.396 2.6l8.71 2.528 20.23-11.814c0.952-0.588 1.816-0.264 1.104 0.326l-16.362 13.712z"></path>
</symbol>
<symbol id="icon-facebook" viewBox="0 0 16 32">
<path d="M14.266 15.97h-4.176v15.39h-6.328v-15.392h-3.008v-5.408h3.008v-3.498c0-2.504 1.184-6.422 6.384-6.422l4.688 0.019v5.25h-3.402c-0.557 0-1.342 0.282-1.342 1.475v3.184h4.73l-0.554 5.4z"></path>
</symbol>
<symbol id="icon-arrow-right" viewBox="0 0 32 32">
<path d="M19.414 27.414l10-10c0.781-0.781 0.781-2.047 0-2.828l-10-10c-0.781-0.781-2.047-0.781-2.828 0s-0.781 2.047 0 2.828l6.586 6.586h-19.172c-1.105 0-2 0.895-2 2s0.895 2 2 2h19.172l-6.586 6.586c-0.39 0.39-0.586 0.902-0.586 1.414s0.195 1.024 0.586 1.414c0.781 0.781 2.047 0.781 2.828 0z"></path>
</symbol>
</defs>
</svg>
